<svg version="1.1" viewBox="0.0 0.0 485.4488188976378 430.9711286089239" fill="none" stroke="none" stroke-linecap="square" stroke-miterlimit="10" xmlns:xlink="http://www.w3.org/1999/xlink" xmlns="http://www.w3.org/2000/svg"><clipPath id="p.0"><path d="m0 0l485.44882 0l0 430.97113l-485.44882 0l0 -430.97113z" clip-rule="nonzero"/></clipPath><g clip-path="url(#p.0)"><path fill="#000000" fill-opacity="0.0" d="m0 0l485.44882 0l0 430.97113l-485.44882 0z" fill-rule="evenodd"/><path fill="#f1c232" d="m383.41733 53.527557l-3.2966003 -7.9081345l-11.86087 -22.4042l-8.566956 -2.8556423l-8.7847595 -0.44094658l-199.67192 -3.7322826l-10.32283 1.317585l-11.422577 3.2939644l-15.816277 5.4908123l-13.83989 10.104986l-7.4671936 7.0288734l-5.7112885 7.9081345l-2.8556442 10.104988l-2.4173203 12.9606285l0.4409485 16.034119l4.832016 15.816277l5.2729645 11.202103l7.4671936 7.467186l14.498688 7.2493515l8.566933 1.3175812l7.687668 0.22047424l14.936996 0.43832397l-7.249344 -6.3700867l23.503937 6.3700867l36.461945 4.8346405l-14.496063 2.853012l-14.937012 1.0997467l-30.75328 0.22047424l-19.548546 -0.22047424l-17.792656 -5.2729645l-8.787399 -7.4671936l-7.4671936 -7.0288773l-8.346458 -11.202095l-3.9553757 -15.377953l-1.0971146 -12.299217l1.3175888 -21.089237l5.05249 -14.2782135l6.8083954 -12.078743l13.619423 -12.522308l12.740158 -8.784777l18.451439 -6.370079l14.937012 -2.4173226l14.716537 -0.43832016l205.3832 0.43832016l5.0498657 1.5380578l6.590576 4.8320208l5.05249 6.5905504l3.5144348 6.808399l8.128601 15.816273l2.8556519 3.952755l7.246704 1.5380592l6.5905457 2.8556442l4.1732483 5.931759l1.9763794 6.370079l-1.5354309 8.566925l-4.175873 5.7112885l-5.7086487 3.7322845l-9.666687 2.196846l-5.931732 -2.196846l-8.346466 -8.125984l-2.4147034 -9.446194l2.1968384 -4.8320236z" fill-rule="evenodd"/><path fill="#ffffff" d="m388.90814 64.396324l0 0c0 -4.183449 3.3913574 -7.5748024 7.5747986 -7.5748024l0 0c2.0089722 0 3.9356384 0.79805756 5.356201 2.2186089c1.4205322 1.4205513 2.2185974 3.3472328 2.2185974 5.3561935l0 0c0 4.183449 -3.3913574 7.574806 -7.5747986 7.574806l0 0c-4.183441 0 -7.5747986 -3.3913574 -7.5747986 -7.574806z" fill-rule="evenodd"/><path fill="#b7b7b7" fill-opacity="0.4769" d="m99.52512 31.784777l32.50918 -13.401575l19.110245 -2.63517l209.55382 3.7349072l-17.792664 -3.0761147l-198.13124 -2.4146986l-19.330704 3.7322836z" fill-rule="evenodd"/><path fill="#b7b7b7" fill-opacity="0.4769" d="m111.03937 136.99738l35.364838 6.152237l24.821518 -1.9790039l-3.296585 -1.7559052l-17.57219 -1.3175964l-17.792648 -0.44093323z" fill-rule="evenodd"/><path fill="#b7b7b7" fill-opacity="0.4769" d="m377.70602 18.598425l10.105011 22.845144l2.8556213 6.149605l0.87927246 -2.1942253l-2.417328 -6.8110237l-7.908142 -18.010498z" fill-rule="evenodd"/><path fill="#ffffff" fill-opacity="0.7692" d="m95.12861 29.36483l32.947502 -15.375329l27.67717 -3.2939625l37.123367 -2.1968508l72.48819 0.8766403l95.33331 4.3937006l-10.984253 -3.952756l-123.22833 -3.0761151l-80.616806 -0.43832016l-25.259834 6.5879264l-20.868767 9.0078745l-14.057747 14.278215z" fill-rule="evenodd"/><path fill="#f1c232" d="m315.009 198.96307l-2.5756226 -6.1786346l-9.266937 -17.504395l-6.693329 -2.2311096l-6.863556 -0.34451294l-156.00366 -2.916031l-8.065224 1.029419l-8.924461 2.573578l-12.357254 4.289978l-10.813103 7.8950195l-5.8341217 5.4916687l-4.462227 6.1786194l-2.2311172 7.8950195l-1.888649 10.126144l0.3445053 12.527466l3.775261 12.357254l4.119766 8.752197l5.8341217 5.8341217l11.32782 5.6638947l6.693344 1.0294495l6.0063705 0.17224121l11.67028 0.34246826l-5.66391 -4.976959l18.363632 4.976959l28.487717 3.7773132l-11.325775 2.229065l-11.670288 0.8592224l-24.027534 0.17224121l-15.273293 -0.17224121l-13.901398 -4.1197815l-6.865593 -5.8341064l-5.8341217 -5.4916687l-6.5210876 -8.752197l-3.090332 -12.014786l-0.85717773 -9.609375l1.0294266 -16.47702l3.9475174 -11.155579l5.319397 -9.437119l10.6408615 -9.783676l9.95388 -6.863556l14.416115 -4.9769287l11.67028 -1.8886566l11.498039 -0.34246826l160.46588 0.34246826l3.945465 1.2016754l5.1492004 3.7752686l3.9475098 5.149185l2.745819 5.319412l6.350891 12.357254l2.2311096 3.0882874l5.661865 1.2016754l5.1492004 2.2311249l3.260559 4.6344757l1.5441284 4.976944l-1.1996155 6.693344l-3.2626038 4.462219l-4.4601746 2.9160461l-7.552582 1.7164001l-4.6344604 -1.7164001l-6.5210876 -6.348831l-1.8866272 -7.3803253l1.7164001 -3.7752533z" fill-rule="evenodd"/><path fill="#ffffff" d="m319.31693 207.46065l0 0c0 -3.270218 2.651062 -5.9212494 5.9212646 -5.9212494l0 0c1.5704346 0 3.0765076 0.62384033 4.186981 1.7342987c1.1104431 1.1104431 1.7342834 2.6165466 1.7342834 4.1869507l0 0c0 3.2702332 -2.6510315 5.9212646 -5.9212646 5.9212646l0 0c-3.2702026 0 -5.9212646 -2.6510315 -5.9212646 -5.9212646z" fill-rule="evenodd"/><path fill="#b7b7b7" fill-opacity="0.4769" d="m93.20565 181.97586l25.39943 -10.470657l14.930824 -2.0588531l163.72438 2.9180756l-13.901398 -2.403366l-154.79993 -1.8865967l-15.103081 2.916031z" fill-rule="evenodd"/><path fill="#b7b7b7" fill-opacity="0.4769" d="m102.202385 264.18515l27.630547 4.806732l19.393051 -1.5462036l-2.5756226 -1.3718872l-13.729141 -1.029419l-13.901405 -0.34451294z" fill-rule="evenodd"/><path fill="#b7b7b7" fill-opacity="0.4769" d="m310.56412 171.67361l7.8950195 17.848907l2.2311096 4.8046875l0.6869812 -1.7143555l-1.8886719 -5.3214417l-6.1786194 -14.0716095z" fill-rule="evenodd"/><path fill="#ffffff" fill-opacity="0.7692" d="m89.769875 180.08473l25.74189 -12.012741l21.62416 -2.573578l29.004486 -1.7164001l56.635025 0.68492126l74.48393 3.4328003l-8.582001 -3.0882874l-96.278305 -2.403366l-62.9859 -0.34246826l-19.73552 5.147156l-16.304764 7.037842l-10.9833145 11.155579z" fill-rule="evenodd"/><path fill="#f1c232" d="m230.71066 310.05988l-1.6871948 -4.0473633l-6.070404 -11.466492l-4.384552 -1.4615173l-4.496048 -0.22564697l-102.192085 -1.9101868l-5.283226 0.6743164l-5.8460693 1.685852l-8.094772 2.8102112l-7.0832596 5.1717224l-3.8217087 3.5973816l-2.9230347 4.047394l-1.4615173 5.1717224l-1.2371826 6.6332397l0.22567749 8.206268l2.4730225 8.094788l2.6987076 5.7332153l3.8217087 3.8217163l7.4204254 3.710205l4.384552 0.6743469l3.9345474 0.112854004l7.64476 0.22433472l-3.7102127 -3.2602234l12.02932 3.2602234l18.661217 2.4743652l-7.4190826 1.4601746l-7.64476 0.5628357l-15.739532 0.112854004l-10.0049515 -0.112854004l-9.106277 -2.6987l-4.4973907 -3.8217163l-3.8217087 -3.5973816l-4.2717133 -5.7332153l-2.0243683 -7.870453l-0.56150055 -6.294739l0.6743393 -10.793457l2.5858688 -7.3075867l3.4845352 -6.1819153l6.970421 -6.408905l6.5204163 -4.496063l9.443443 -3.2601929l7.64476 -1.2371826l7.531929 -0.22433472l105.11512 0.22433472l2.5845184 0.7871704l3.3730469 2.4730225l2.5858612 3.3730469l1.7986908 3.4845276l4.1602325 8.094788l1.4615173 2.0230103l3.7088623 0.7871704l3.3730469 1.4615173l2.1358643 3.0358887l1.0115051 3.2601929l-0.7858429 4.384552l-2.1371918 2.9230347l-2.921692 1.9101868l-4.947403 1.1243591l-3.0358734 -1.1243591l-4.2717133 -4.1588745l-1.2358398 -4.834564l1.1243439 -2.4730225z" fill-rule="evenodd"/><path fill="#ffffff" d="m233.51692 315.6191l0 0c0 -2.139557 1.7344513 -3.873993 3.8740082 -3.873993l0 0c1.0274658 0 2.0128326 0.4081421 2.7393494 1.1346436c0.7265167 0.726532 1.1346741 1.7119141 1.1346741 2.7393494l0 0c0 2.139557 -1.7344513 3.8740234 -3.8740234 3.8740234l0 0c-2.139557 0 -3.8740082 -1.7344666 -3.8740082 -3.8740234z" fill-rule="evenodd"/><path fill="#b7b7b7" fill-opacity="0.4769" d="m85.41428 298.93182l16.638199 -6.858917l9.780617 -1.3486633l107.24963 1.911499l-9.106277 -1.5743408l-101.40356 -1.2358398l-9.8934555 1.9101868z" fill-rule="evenodd"/><path fill="#b7b7b7" fill-opacity="0.4769" d="m91.30713 352.7781l18.099724 3.1487122l12.703651 -1.0128784l-1.6871948 -0.8986511l-8.993439 -0.6743469l-9.106277 -0.22567749z" fill-rule="evenodd"/><path fill="#b7b7b7" fill-opacity="0.4769" d="m227.78383 292.183l5.1717224 11.692139l1.4615326 3.1473694l0.44999695 -1.1230164l-1.2371826 -3.4858704l-4.0473785 -9.217773z" fill-rule="evenodd"/><path fill="#ffffff" fill-opacity="0.7692" d="m83.16432 297.6934l16.862534 -7.8690796l14.165169 -1.685852l18.999733 -1.1243591l37.099457 0.44866943l48.791595 2.2487183l-5.6217346 -2.0230408l-63.068268 -1.5743408l-41.259674 -0.22433472l-12.927986 3.371704l-10.680641 4.6102295l-7.194748 7.3075867z" fill-rule="evenodd"/><path fill="#f1c232" d="m179.00562 380.13538l-1.142273 -2.7401733l-4.1098022 -7.7630615l-2.9684448 -0.98947144l-3.0439148 -0.15280151l-69.186325 -1.2932434l-3.5768585 0.45654297l-3.957924 1.1413574l-5.480339 1.9025879l-4.7955246 3.5013733l-2.5873795 2.4355164l-1.9789581 2.7401428l-0.98947906 3.5014038l-0.83760834 4.4908447l0.15279388 5.5558167l1.6742935 5.4803467l1.8270798 3.8815308l2.5873795 2.5873718l5.023796 2.5119019l2.9684448 0.45654297l2.6637726 0.0763855l5.1756744 0.15188599l-2.5118942 -2.2072449l8.144112 2.2072449l12.634064 1.6752014l-5.022888 0.9885864l-5.1756744 0.38104248l-10.656006 0.0763855l-6.773575 -0.0763855l-6.1651535 -1.8270874l-3.044838 -2.5873718l-2.5873795 -2.4355164l-2.8920517 -3.8815002l-1.3705368 -5.3284607l-0.38014984 -4.261688l0.45654297 -7.307434l1.7506866 -4.9473877l2.3591156 -4.1853027l4.719124 -4.3389587l4.414467 -3.0439453l6.393425 -2.2072144l5.1756744 -0.83761597l5.0992813 -0.15185547l71.165276 0.15185547l1.7497864 0.532959l2.283615 1.6742859l1.7507019 2.2836304l1.2177429 2.3591003l2.8165588 5.4803467l0.9894867 1.3696289l2.5109863 0.53292847l2.2836304 0.98947144l1.4460144 2.055359l0.68481445 2.2072449l-0.53201294 2.9684448l-1.4469452 1.9789429l-1.9780426 1.2932434l-3.3495026 0.76119995l-2.055359 -0.76119995l-2.892044 -2.8156433l-0.83670044 -3.2731018l0.7612152 -1.6743164z" fill-rule="evenodd"/><path fill="#ffffff" d="m180.90622 383.90607l0 0c0 -1.4524841 1.1774597 -2.6299438 2.6299286 -2.6299438l0 0c0.6974945 0 1.3664246 0.2770996 1.8596344 0.7702942c0.49320984 0.4932251 0.77027893 1.1621399 0.77027893 1.8596497l0 0c0 1.4524536 -1.1774445 2.6299133 -2.6299133 2.6299133l0 0c-1.4524689 0 -2.6299286 -1.1774597 -2.6299286 -2.6299133z" fill-rule="evenodd"/><path fill="#b7b7b7" fill-opacity="0.4769" d="m80.63679 372.6014l11.264427 -4.6436462l6.621704 -0.91308594l72.6104 1.2941284l-6.165161 -1.0658569l-68.65247 -0.83670044l-6.6980896 1.2932434z" fill-rule="evenodd"/><path fill="#b7b7b7" fill-opacity="0.4769" d="m84.6264 409.05612l12.253914 2.1317444l8.600655 -0.68569946l-1.1422653 -0.60842896l-6.0887604 -0.45654297l-6.1651535 -0.15280151z" fill-rule="evenodd"/><path fill="#b7b7b7" fill-opacity="0.4769" d="m177.02477 368.0323l3.5013733 7.9158325l0.9894867 2.1308289l0.30467224 -0.7602844l-0.83761597 -2.3600159l-2.740158 -6.240631z" fill-rule="evenodd"/><path fill="#ffffff" fill-opacity="0.7692" d="m79.11348 371.76297l11.416313 -5.327545l9.590134 -1.1413574l12.863243 -0.76119995l25.117157 0.30374146l33.033005 1.5224304l-3.8060455 -1.3696289l-42.698624 -1.0658875l-27.933716 -0.15185547l-8.752541 2.2827148l-7.2310257 3.1212158l-4.87101 4.9473877z" fill-rule="evenodd"/></g></svg>