<svg version="1.1" viewBox="0.0 0.0 157.71653543307087 413.3989501312336" fill="none" stroke="none" stroke-linecap="square" stroke-miterlimit="10" xmlns:xlink="http://www.w3.org/1999/xlink" xmlns="http://www.w3.org/2000/svg"><clipPath id="p.0"><path d="m0 0l157.71654 0l0 413.39896l-157.71654 0l0 -413.39896z" clip-rule="nonzero"/></clipPath><g clip-path="url(#p.0)"><path fill="#000000" fill-opacity="0.0" d="m0 0l157.71654 0l0 413.39896l-157.71654 0z" fill-rule="evenodd"/><path fill="#cccccc" d="m62.37008 68.926506l-2.312336 -14.333332l12.944881 -23.115484l0.46194458 -8.784777l38.372704 -1.8477688l15.257217 1.3858261l0.46193695 11.097113l11.5590515 22.653545l-1.388443 13.406822z" fill-rule="evenodd"/><defs><linearGradient id="p.1" gradientUnits="userSpaceOnUse" gradientTransform="matrix(16.599429098155372 0.0 0.0 16.599429098155372 0.0 0.0)" spreadMethod="pad" x1="2.9775238990530175" y1="3.957360482538207" x2="2.9774636782526755" y2="20.556789580584343"><stop offset="0.0" stop-color="#db0000"/><stop offset="1.0" stop-color="#540303"/></linearGradient></defs><path fill="url(#p.1)" d="m50.349083 74.0105l-0.92388535 214.05511l30.04987 49.00525l19.879265 3.6981812l16.645668 0.46191406l17.10498 -4.62204l13.40683 -12.944885l3.2362213 -247.80313l-4.62204 -8.322838l-18.95539 -1.8477631l-60.102356 1.3858261l-11.09449 0z" fill-rule="evenodd"/><path fill="#000000" d="m73.2336 23.15748l-1.8477707 -13.871391l1.8477707 -5.083989l27.278214 -1.3884516l16.181107 0.92650914l11.094482 0.92388463l-0.46193695 15.71916l-2.7742844 2.7742786z" fill-rule="evenodd"/><path fill="#000000" d="m43.49344 95.49606l-5.27034 0.43831635l-4.834648 7.249344l-9.225721 143.65616l5.4934387 9.884506l7.687666 -1.7558899l0.22047043 -7.908142l2.63517 -27.456696l-4.173229 -0.44093323l5.052494 -88.74278l3.7322845 -1.9763794l2.1968498 -4.173233l-0.6587906 -3.734909l0 -25.480316z" fill-rule="evenodd"/><path fill="#f3f3f3" d="m41.73491 101.20735l-0.6587944 2.5249329l-0.98687744 12.850395l-0.6587906 9.44619l3.1863518 2.4147034l1.9763756 -3.624672l0.6587944 -7.1391144l0.43832016 -11.091858l-2.0866127 -5.380577z" fill-rule="evenodd"/><path fill="#b7b7b7" d="m50.740158 88.46457l-5.27034 2.6377945l-1.9790039 15.375328l-2.8556442 13.398949l2.1968498 1.3175888l1.7585297 -1.0971146l4.8320236 -28.115486z" fill-rule="evenodd"/><path fill="#f3f3f3" d="m32.29134 230.25722l-0.22047424 1.8661346l-0.87926483 17.902893l1.0997391 3.7322845l3.4041977 -0.21784973l0.5485573 -1.5380554l0.22047043 -5.490814l0.8766403 -15.267715l-0.107608795 -5.27034l-1.6482964 -0.551178" fill-rule="evenodd"/><path fill="#b7b7b7" d="m50.1916 264.08398l-1.7559052 -1.4278259l-4.5013123 -7.139099l-8.787403 -19.879257l-0.33070755 -2.8556519l1.0997391 -1.0971069l1.8661423 0.65878296l0.54855347 3.7322845l8.787403 18.78215l2.745407 1.2073517z" fill-rule="evenodd"/><path fill="#d9d9d9" d="m38.66142 230.80577l8.566929 18.010498l2.1968498 0.22047424l0 6.590561l-2.307087 0.32807922l-8.456692 -18.010498z" fill-rule="evenodd"/><path fill="#000000" fill-opacity="0.0" d="m60.925198 61.666668l77.32283 -3.0866165" fill-rule="evenodd"/><path stroke="#666666" stroke-width="3.0" stroke-linejoin="round" stroke-linecap="butt" d="m60.925198 61.666668l77.32283 -3.0866165" fill-rule="evenodd"/><path fill="#000000" fill-opacity="0.0" d="m60.92651 56.396324l14.488186 -0.44094467" fill-rule="evenodd"/><path stroke="#666666" stroke-width="3.0" stroke-linejoin="round" stroke-linecap="butt" d="m60.92651 56.396324l14.488186 -0.44094467" fill-rule="evenodd"/><defs><linearGradient id="p.2" gradientUnits="userSpaceOnUse" gradientTransform="matrix(10.139188804154859 0.0 0.0 10.139188804154859 0.0 0.0)" spreadMethod="pad" x1="0.9422652994057312" y1="39.607759450789366" x2="11.081454103560588" y2="39.607759450789366"><stop offset="0.0" stop-color="#ffffff"/><stop offset="0.94" stop-color="#999999"/><stop offset="1.0" stop-color="#737373"/></linearGradient></defs><path fill="url(#p.2)" d="m10.322835 307.90552l-0.7690296 1.8661499l11.094489 74.79526l8.784777 8.346466l11.753281 6.3700867l18.230972 1.6482849l8.89764 0.65878296l16.913383 -2.7453918l8.125984 -4.1732483l7.1391068 -6.2598267l4.614174 -4.7244263l7.249344 -74.46457z" fill-rule="evenodd"/><path fill="#000000" d="m8.346457 298.90027l0.6587925 8.125977l0.22047234 2.7454224l14.826773 8.787384l11.971127 3.9553833l17.351707 2.3044739l15.926506 -0.11026001l18.230972 -1.7558899l10.433075 -1.9763794l10.104988 -5.4934387l4.942253 -5.8189087l0.87926483 -4.7243958l-0.8766403 -5.8189087l-3.296585 9.1154785l-7.0288696 4.7218018l-21.748032 7.577423l-27.895016 0.551178l-19.330711 -2.6377869l-14.608923 -4.9422607l-6.370078 -4.9422607l-3.5144358 -5.490814z" fill-rule="evenodd"/><path fill="#434343" d="m13.729659 289.67453l-2.9658794 3.0734863l-2.417323 4.614197l0.11023617 5.6010437l3.624672 5.05249l6.9186354 5.3805847l10.543306 4.503937l13.181105 2.6351624l12.519684 1.2099609l16.254593 -0.551178l11.202103 -0.87661743l12.960625 -3.4068298l12.191605 -6.0393677l4.2834625 -6.1496277l0.87926483 -5.8215027l-4.1732254 -5.821533l-7.797905 -5.490814l-15.267715 -5.383209l-16.913383 -2.4146729l-24.493439 0.54855347l-10.322834 1.6482849l-12.301838 3.6246643z" fill-rule="evenodd"/><path fill="#000000" d="m19.986877 288.4672l-8.897638 6.0393677l-0.8766403 3.8451538l0.328084 4.173218l1.5380573 -4.065613l6.0393705 -5.3805847l8.238844 -3.2939453l11.422571 -2.417328l14.38583 -0.6588135l-11.97113 0.98950195l-8.566929 1.8661499l-11.202099 3.6246643l-5.9291344 4.063019l-1.7585306 3.6246643l-1.0971127 4.0629883l6.0393705 -6.149597l7.249344 -4.1732483l11.422573 -2.8556213l7.687664 -0.98950195l8.018372 0.11022949l-4.614174 0.87927246l-10.212597 1.7558899l-8.566931 1.6482849l-7.469816 2.9658813l-4.503937 3.4042053l-4.5013123 3.7349243l3.952757 3.4041748l7.1391068 3.5144348l8.456694 3.0761414l13.619423 2.8556213l10.433071 0.87664795l12.740154 -0.21783447l9.994751 -0.87927246l11.863518 -2.8556519l9.55381 -3.6246643l3.8451385 -3.1837463l-6.041992 -5.8215027l-5.05249 -2.9658813l-6.1496124 -2.6351624l-2.196846 -1.9763794l11.312332 4.8320007l6.1522293 4.6115723l2.8530197 2.5275574l-1.0971069 -4.503937l-7.0288773 -5.821533l-6.8083954 -3.1837158l-4.834648 -2.196869l4.724411 0.43832397l9.443573 5.6010437l5.3832016 3.6246948l2.3070831 2.8556213l-2.1968536 -8.236206l-7.6902847 -5.383209l-15.044617 -5.05249l-15.377953 -2.4147034l-13.94751 -0.11022949l-5.052494 0.22045898l-10.3202095 0.87664795l-11.866142 2.9658813l-3.4041996 1.0997314z" fill-rule="evenodd"/></g></svg>