<svg version="1.1" viewBox="0.0 0.0 140.49606299212599 421.49081364829397" fill="none" stroke="none" stroke-linecap="square" stroke-miterlimit="10" xmlns:xlink="http://www.w3.org/1999/xlink" xmlns="http://www.w3.org/2000/svg"><clipPath id="p.0"><path d="m0 0l140.49606 0l0 421.4908l-140.49606 0l0 -421.4908z" clip-rule="nonzero"/></clipPath><g clip-path="url(#p.0)"><path fill="#000000" fill-opacity="0.0" d="m0 0l140.49606 0l0 421.4908l-140.49606 0z" fill-rule="evenodd"/><path fill="#999999" d="m44.843834 71.055115l-0.21522522 -2.1548538l4.3097115 -43.312332l2.5853004 -7.3254604l4.958008 -4.094487l5.6010475 -1.5091867l4.094486 1.5091867l17.238846 21.979l4.9553833 -9.265091l3.6640396 -9.698162l2.5853043 -6.0341206l9.482941 -0.43044662l1.724411 4.740157l-7.328087 55.811024l-6.682411 3.448822l0.86613464 -21.548557l2.8005295 -22.627298l-6.895012 16.377954l1.9343796 29.089237l-9.695534 0l-0.21260071 -29.089237l-22.842522 -29.737534l-3.2309685 1.7244091l-3.0183754 51.501312l-4.3097115 6.6797943z" fill-rule="evenodd"/><path fill="#918151" d="m29.363518 78.00525l11.51181 -5.065613l12.892387 -2.3018417l19.338585 1.3805771l23.942253 -0.921257l12.892395 4.6063004l7.826767 2.301834l-4.144356 35.45407l-1.8398972 28.545929l-5.524933 19.338577l0.45932007 12.892395l3.6824112 35.91339l-0.45931244 20.259842l-44.202103 22.330704l0 -12.199478l-2.301838 -8.288712l-2.301838 23.251968l-15.194225 -5.296585l-9.209972 -5.524933l-8.979004 -7.3648376l-4.603674 -8.750656l4.8346443 -63.54068l1.380579 -18.876633l-0.92126083 -29.467201l0.92126083 -15.656166l-1.8398952 -7.826767z" fill-rule="evenodd"/><path fill="#999999" d="m22.917322 227.41733l8.748032 12.430435l11.28084 8.288727l9.209972 4.144348l9.438324 2.301834l-3.454071 36.606293l0.46194458 30.847778l4.8346443 23.48294l-3.6850395 9.207336l-0.22834778 5.2966003l-14.503937 2.3018494l-9.900261 -9.438324l-2.0734901 -8.057739l0.46194077 -14.965881l-7.3674545 -38.67456l-2.5328083 -14.503937z" fill-rule="evenodd"/><path fill="#999999" d="m65.738846 252.28084l44.202103 -23.713913l-4.834648 65.38321l2.0708618 43.97113l4.603676 29.469818l-13.81102 8.979004l-10.359581 -0.46194458l-4.834648 -2.9921265l-2.7637787 -7.598419l-1.1522293 -23.251984l-8.976379 -41.66928l-3.454071 -20.02887z" fill-rule="evenodd"/><path fill="#666666" d="m40.412075 357.0315l-4.603676 4.372711l-7.8267727 9.669281l-4.8346443 7.826782l0.9186344 6.908142l4.375328 2.0708618l6.905514 -1.3805847l5.524933 -4.144348l17.958004 -16.115509l1.8425217 -6.6771545l-0.46194458 -2.761139l-9.897636 4.603668z" fill-rule="evenodd"/><path fill="#666666" d="m89.91076 375.44882l0.91864014 3.4514465l-6.215225 20.031494l0.23097229 5.7532654l3.2230988 3.454071l4.603668 2.5328064l8.517067 -0.92123413l5.5275574 -7.136505l3.451439 -13.582672l0.23097229 -11.742767l-2.5328064 -6.4461975l-0.69029236 -2.3018494z" fill-rule="evenodd"/><path fill="#999999" d="m30.284777 102.178474l-0.22834587 -4.375328l5.9501305 -9.724403l11.63517 -3.8792648l5.8188972 3.8792648l-3.1469803 46.55906l-4.3727036 0.6902771l-10.590549 0l-7.3674564 1.611557z" fill-rule="evenodd"/><path fill="#666666" d="m30.670603 96.91601l3.9370098 -9.249344l7.5643044 -4.0l6.4986877 -1.8110199l3.7506561 1.3123322l3.312336 3.2493439l-2.1863518 48.000008l-3.3149605 4.249344l-4.4986877 0.93699646l-17.186352 -0.18634033l-0.56430626 -3.3123474l19.81365 -1.0l2.2493439 -2.0629883l2.4383202 -45.0l-3.312336 -2.1259842l-4.1889763 0.3149643l-2.8740158 1.0603638l-6.813648 3.5643082z" fill-rule="evenodd"/><path fill="#666666" d="m69.232285 87.603676l-3.1863556 47.999992l1.6246719 2.7506561l2.624672 1.6876678l34.687668 1.2493439l2.1889725 -3.1863556l-0.12598419 -42.312332l-1.1259842 -2.4383163l-3.6876602 -3.624672l-5.7480316 -2.9370117l-10.062996 -3.4383163l-5.750656 -1.5616837l-3.1233597 -0.18897247l-3.5013123 1.0l-1.8740158 1.6272964z" fill-rule="evenodd"/><path fill="#999999" d="m73.33727 88.13386l-1.8425217 8.748032l-2.301834 37.527565l1.6115417 2.7611542l33.61155 1.1522217l1.1522369 -4.144348l-0.69291687 -36.83465l-5.062996 -5.0656204l-10.131233 -4.144356l-11.280838 -2.9921265z" fill-rule="evenodd"/><path fill="#000000" fill-opacity="0.0" d="m47.211285 91.52756l-2.582676 37.07086" fill-rule="evenodd"/><path stroke="#000000" stroke-width="8.0" stroke-linejoin="round" stroke-linecap="butt" d="m47.211285 91.52756l-2.582676 37.07086" fill-rule="evenodd"/><path fill="#000000" fill-opacity="0.0" d="m79.1063 91.52756l-2.5826797 37.07086" fill-rule="evenodd"/><path stroke="#000000" stroke-width="8.0" stroke-linejoin="round" stroke-linecap="butt" d="m79.1063 91.52756l-2.5826797 37.07086" fill-rule="evenodd"/><path fill="#666666" d="m29.06063 152.50919l1.7244091 1.9396362l6.6797886 0.43045044l8.619423 0.43043518l-1.7244072 13.574814l-16.160107 -3.2309723l-1.0787411 -6.464569z" fill-rule="evenodd"/><path fill="#666666" d="m67.20236 156.17323l-1.2939606 12.929123l13.574799 0l12.28347 2.1548615l2.1548538 -10.774277l-15.944885 -2.1548615l-4.958 -2.1548462z" fill-rule="evenodd"/><path fill="#000000" d="m84.279526 30.543306l-7.755905 11.853018l4.524933 4.5249367l7.755905 0l3.448822 -6.464569z" fill-rule="evenodd"/><path fill="#000000" d="m23.29265 378.76904l2.2388458 4.632538l3.2309704 1.2939453l10.797901 -1.5091858l-4.1994743 3.2309875l-7.6745415 1.8320007l-4.2021008 -2.6929016l-0.75590515 -2.8005066z" fill-rule="evenodd"/><path fill="#000000" d="m84.81233 399.34647l2.2388458 4.8503723l5.3884583 1.2913513l6.572174 -0.6456604l3.7690277 -0.43045044l3.2335968 -3.556427l-1.1601028 4.417328l-3.3412094 4.524933l-8.404198 0.9711304l-6.703415 -3.9868774l-1.5091858 -2.2624817z" fill-rule="evenodd"/><path fill="#000000" d="m56.77559 367.77954l-1.8320198 -1.7244263l-2.4776917 -2.8005066l-3.2309685 -1.5092163l-2.6955376 -0.43041992l-11.204727 0.86087036l2.1811028 -2.3700562l8.916012 -0.21524048l8.51181 0.7532959l3.9028893 6.0341187z" fill-rule="evenodd"/><path fill="#000000" d="m89.635826 382.97113l0.9711304 -4.2020874l12.280838 -1.9396362l2.6955414 0.32281494l4.524933 4.309723l-0.10761261 3.664032l-2.6955414 -4.3096924l-3.015747 -2.1548767l-13.036743 1.6168213z" fill-rule="evenodd"/></g></svg>